<?xml version="1.0" encoding="UTF-8" standalone="no"?>
<svg
   width="2401"
   height="2626"
   viewBox="0 0 2401 2626"
   version="1.1"
   id="svg3"
   xmlns="http://www.w3.org/2000/svg"
   xmlns:svg="http://www.w3.org/2000/svg">
  <defs
     id="defs3" />
  <path
     fill-rule="nonzero"
     fill="rgb(0%, 0%, 0%)"
     fill-opacity="1"
     d="m 928.04687,0.140625 c -5.64843,0.03125 -11.33984,3.667969 -20.37109,10.679687 -7.93359,6.160157 -16.54687,11.488282 -19.26562,11.898438 -2.4961,0.410156 -13.14454,-1.847656 -23.11719,-5.128906 -14.96094,-4.511719 -19.71875,-5.128906 -24.70703,-3.480469 -3.85157,1.429687 -7.48047,1.429687 -10.19922,0 -6.80078,-3.289063 -10.42578,-2.46875 -13.14844,3.070313 -2.03906,3.691406 -4.30469,5.128906 -9.29297,5.128906 -4.30469,0 -7.92969,1.640625 -10.19922,4.511718 L 794.34766,31.328125 783.46875,26 c -9.74609,-4.71875 -14.27734,-5.328125 -43.0625,-6.359375 l -32.18359,-1.019531 -7.48047,6.558594 c -7.48047,6.558593 -8.16016,6.769531 -32.41016,7.789062 -29.69141,1.230469 -41.02344,4.929688 -43.29297,13.339844 -2.71875,10.050781 -5.21094,11.28125 -18.35937,9.839844 -18.35938,-2.046876 -34.22266,2.871093 -48.72657,15.382812 -9.97265,8.617188 -13.37109,10.257812 -20.625,10.257812 -4.76171,0 -12.23828,-1.4375 -17,-3.277343 C 510.35547,74.820312 483.38672,76.25 469.10547,81.378906 461.17187,84.25 459.8125,84.25 453.01562,80.96875 448.93359,78.921875 440.77344,72.359375 434.87891,66.199219 429.21484,60.050781 422.64062,55.121094 420.375,55.121094 c -5.66797,0 -11.10547,8 -12.91797,18.878906 -2.26562,13.738281 -27.65234,51.07031 -41.02344,60.30078 -8.83984,5.94922 -36.26562,16.19922 -52.58203,19.27734 -12.46875,2.46094 -26.97265,7.79297 -32.41406,11.89063 -4.98438,3.69141 -5.21094,10.87109 -0.90625,18.46094 2.72266,4.92968 2.71875,7.80078 0.22656,18.46093 -1.58594,7.17969 -4.53125,14.57032 -6.57422,16.6211 -4.98437,4.91797 -4.53125,18.25781 0.90625,25.83984 6.57422,9.02735 6.1211,23.17969 -1.1289,32 -2.94922,3.89844 -8.38672,10.66797 -11.78907,15.37891 -9.97265,13.1289 -37.17187,35.07812 -50.76953,40.82031 -6.80078,2.66016 -16.08984,5.12891 -20.85156,5.12891 -14.95703,0 -23.79687,4.71093 -29.00781,15.78906 -13.60156,28.72266 -19.04297,35.89062 -37.62891,47.79297 -14.05078,9.01953 -19.26172,19.6875 -20.84765,43.07812 l -1.36328,19.26953 -7.476568,2.05079 c -4.304687,1.03125 -9.519531,4.71875 -12.242187,8.21093 -2.71875,3.48828 -7.703125,9.01953 -11.105469,12.50782 -3.398437,3.28125 -9.289062,13.74218 -13.144531,22.97265 -10.199219,25.42969 -15.414063,33.63672 -27.425781,43.6875 -9.066406,7.58985 -11.105469,10.8711 -12.464844,18.8711 -2.265625,13.94921 3.628906,28.71093 16.09375,39.78906 6.121094,5.33203 9.96875,10.46094 9.96875,13.53906 0,2.46094 0.683594,8 1.363281,12.10156 1.132813,6.35938 0.453125,8.41016 -5.667969,13.94922 -5.441406,4.92188 -6.800781,7.78906 -5.894531,11.07031 1.589844,4.92188 14.054688,16.6211 19.492188,18.26172 2.722656,0.82032 2.722656,1.64063 0,6.35938 -2.265625,3.6914 -2.71875,8.82031 -1.585938,18.66015 1.585938,12.09766 1.132813,14.14844 -4.53125,22.96875 -6.800781,10.46094 -9.746093,21.75 -12.011719,46.96875 l -1.363281,16.41016 -10.875,6.36328 c -16.773437,9.83985 -21.984375,15.17969 -21.984375,21.73828 0,7.80078 3.398438,13.53907 12.691406,21.33985 7.253907,6.14843 7.707032,7.17187 7.707032,20.91015 0,8 -1.132813,19.28125 -2.496094,24.82032 -4.304688,18.66796 5.667969,33.03125 24.707031,35.6914 14.277344,2.25781 20.171875,7.58985 21.984375,20.91797 1.359375,10.46094 2.039063,11.69141 9.0625,14.16016 6.121094,2.46093 9.070313,5.9414 15.640625,18.05078 4.308594,8.19922 8.160157,16.82031 8.613281,19.07031 0.453126,2.87109 2.718748,4.30859 7.249998,4.71872 4.08203,0.4102 10.65625,4.711 18.81641,11.8907 12.23828,11.0781 12.23828,11.2812 9.74609,18.4609 -4.53515,12.1094 -1.36328,19.6875 13.82422,33.0195 7.48047,6.5703 15.86719,15.3907 18.58594,19.6992 3.17187,5.1211 7.02734,8.1993 11.55859,9.2305 5.21485,1.2305 7.70703,3.4883 9.51953,8.1992 3.625,10.0508 22.44141,26.0508 43.06641,36.5118 21.75781,11.0781 33.54297,21.3281 37.62109,32.6093 2.71875,7.3907 3.85157,8.211 11.33203,8.8203 6.1211,0.4102 9.29297,2.0508 11.10547,5.1289 3.39844,5.9493 6.34766,7.5899 13.375,7.5899 3.17188,0 9.0625,1.8516 13.14063,4.1016 4.08203,2.2578 8.84375,4.0976 10.88281,4.0976 3.625,0 26.96875,-10.25 39.21094,-17.4297 4.98437,-2.8711 13.59765,-5.1289 21.75781,-5.9492 8.61328,-0.8203 16.09375,-2.8711 20.39844,-5.7383 8.38672,-5.7422 22.4375,-6.7734 53.48828,-4.1015 26.06641,2.25 41.93359,7.1796 52.35937,16.1992 l 6.11719,5.1289 7.02735,-4.5078 c 4.07812,-2.6719 11.78515,-5.5391 17.45312,-6.3594 5.44141,-1.0313 14.27734,-4.5117 19.48828,-7.8008 5.21485,-3.2812 13.60156,-6.9687 18.35938,-8 4.76172,-1.2305 11.10547,-4.3008 13.82422,-6.5586 3.85546,-3.2812 10.42968,-5.1328 25.16015,-6.7734 18.35938,-2.25 20.17188,-2.8672 21.30469,-7.5899 1.13281,-4.2968 3.40234,-5.3281 15.86719,-7.3789 15.1875,-2.6679 86.35547,-3.4882 98.59375,-1.0312 4.76172,0.8203 7.02343,2.6719 7.47656,5.9531 0.45312,2.8672 3.85547,5.9492 9.29297,8.6172 8.83984,3.8906 20.40234,14.5625 20.85547,19.0703 0.22656,1.4414 0.45312,7.3906 0.67968,13.543 0.22657,8.4062 1.35547,11.6875 4.75782,13.9375 12.91797,8.2109 22.21093,12.9297 25.38281,12.9297 2.04297,0 10.20312,-3.2774 18.13672,-7.1797 13.82422,-6.7696 15.41015,-7.1797 36.71484,-7.1797 h 22.4375 l 13.82422,13.5391 c 20.17188,20.1015 26.06641,31.9921 26.97266,56.2031 0.67968,16.1992 0.004,23.1679 -4.75782,39.1679 -3.17187,10.6719 -6.34765,24.8204 -7.2539,31.5899 -0.90625,6.7695 -4.08203,19.2812 -7.25391,27.6914 -3.17187,8.4102 -6.12109,21.3281 -6.80078,28.707 -1.35937,15.793 3.40234,28.1016 18.58594,48.211 5.21484,6.7695 12.24219,16.6093 15.64062,21.9414 3.17578,5.3398 11.10547,14.9804 17.45313,21.539 6.11719,6.3594 11.78515,13.7422 12.23828,16.4102 0.67969,2.6601 1.58594,6.7617 2.26562,9.4297 0.67969,2.8711 3.85547,5.9492 8.38672,7.8008 4.98438,1.8398 7.70316,4.5117 8.16406,8 0.4492,2.8711 2.7188,6.9687 4.9883,9.2304 9.0586,9.2305 18.1289,24.6094 18.1289,31.168 0,5.332 1.3633,7.3828 5.6602,9.2305 3.1718,1.2304 5.6718,2.8711 5.6718,3.6914 0,0.8281 -2.5,3.0781 -5.6718,4.9297 -7.6993,4.5117 -7.2501,8.4101 3.4023,22.5586 4.9883,6.5625 9.0703,14.1523 9.0703,16.8203 0,2.4609 4.5274,13.125 10.1992,23.5859 11.5508,21.332 12.2383,26.0469 5.4375,35.8945 -7.4765,11.2813 -6.5781,21.9453 4.0821,42.8672 4.9804,10.0508 11.5507,24.4063 14.2695,31.793 8.3906,21.3281 3.8594,32.1992 -18.3516,44.0976 -9.5195,5.125 -18.3593,20.5118 -19.7187,34.4571 -0.4492,5.9492 -2.7188,12.3086 -4.5391,14.3594 -2.2617,2.2539 -4.5312,11.4843 -6.3398,25.0195 -2.2696,18.0508 -3.6211,22.7695 -9.5196,30.7695 -3.8515,5.332 -7.4804,13.5352 -8.1601,18.2539 -7.25,56.6094 -8.6094,86.1446 -5.211,98.4531 1.1289,3.2813 6.8008,10.254 12.6914,15.3829 7.7071,6.7695 12.0079,12.7148 14.9571,20.7148 2.043,6.1523 6.1211,13.5352 9.0703,16.4102 6.3398,6.5625 13.8203,22.9726 15.8633,34.8671 2.7187,17.6407 8.3867,28.7188 23.7969,48.4063 17.2226,21.7422 19.4921,27.4844 16.0898,39.1758 -3.8477,12.5117 -2.9375,25.2304 3.4023,43.8945 4.7579,14.5625 5.668,19.6914 4.5274,32.6133 -1.1289,12.5078 -0.4492,17.8437 3.1836,27.0703 2.4883,6.5664 4.5273,14.7695 4.5273,18.2578 0,11.6914 7.4805,43.8906 11.7813,51.0703 12.6992,20.9219 19.5,29.7422 25.6211,32.8164 9.5195,4.7188 22.207,33.0235 21.7578,48.8164 -0.2305,12.9219 5.8906,27.6914 13.3711,31.1797 2.7109,1.2305 7.4804,7.1797 10.6484,12.9219 2.9492,5.9453 7.9297,13.7422 11.1016,17.6367 4.3086,5.336 5.4492,9.6406 5.4492,18.461 0,14.1523 -1.3594,16.2031 -11.3399,17.0234 -5.4414,0.4102 -8.1601,1.8437 -8.6093,4.3047 -1.8086,8 2.2695,18.2578 9.9687,25.8476 8.6211,8.6133 9.5196,12.7149 4.0821,16.8164 -3.4024,2.4649 -3.1719,3.0782 1.3593,6.3594 2.7188,2.0508 8.8399,4.3086 13.5977,4.9258 6.3515,1.0234 11.5625,3.8945 19.4922,11.2773 6.1211,5.5391 12.6992,10.0508 14.5078,10.0508 2.043,0 8.1601,-2.664 13.8203,-5.9453 9.5195,-5.7422 28.793,-10.4609 47.6016,-11.4883 4.5312,-0.4101 11.5586,-2.664 15.4101,-5.332 4.7578,-3.2812 9.5195,-4.5156 14.961,-4.1055 14.957,1.0274 27.1992,0.6172 38.3085,-0.8203 6.8008,-1.0234 16.7696,-0.6133 26.0586,1.0274 15.1914,2.4648 15.4219,2.4609 32.1914,-4.3086 12.2383,-5.125 19.7188,-6.7657 28.1016,-6.5586 9.2891,0.2031 12.4688,-0.8242 18.5899,-5.7461 5.8906,-4.5117 9.5195,-5.7422 16.3085,-5.5391 7.2618,0.2071 10.879,-1.2304 19.7188,-7.7929 21.082,-15.793 53.2617,-44.9219 58.7109,-53.3282 4.5313,-6.9765 7.25,-8.8203 15.6289,-10.8711 7.2618,-1.6406 11.793,-4.3047 15.6407,-9.0234 22.6718,-28.1016 39.2109,-50.6641 50.3203,-68.7148 10.4297,-16.6133 14.2812,-21.125 19.039,-22.1524 10.8829,-2.0508 11.5625,-2.6641 11.5625,-9.2266 0,-3.6953 3.3985,-12.3046 7.6993,-19.0742 8.3906,-13.9492 14.5117,-35.8945 17.2304,-62.1484 1.5782,-16.8203 2.0391,-17.6406 11.3282,-26.2539 11.7929,-10.8711 30.6015,-20.1016 48.0507,-23.3828 9.9688,-1.8477 15.6407,-4.5117 23.8008,-11.2813 l 10.8789,-8.8203 0.2305,-19.2812 c 0.2187,-12.3047 1.582,-22.5625 3.8516,-28.3047 4.9882,-11.6914 4.7578,-17.0235 -0.6797,-27.0742 -3.1719,-5.5391 -4.3125,-10.254 -3.4024,-14.7657 0.9102,-4.5117 0,-9.6445 -3.1797,-15.7968 -2.4882,-5.125 -4.75,-12.3047 -4.75,-15.9961 0,-4.5118 -1.8203,-8 -5.6679,-11.0782 -12.4727,-9.8437 -4.0821,-27.2773 14.7265,-30.3515 18.5938,-3.0782 22.211,-5.336 25.1602,-14.3594 2.2734,-6.5664 7.0312,-12.1016 20.8515,-23.1797 9.75,-7.9961 22.8907,-20.3047 29.0196,-27.4844 12.4609,-14.5625 27.4219,-23.3828 46,-27.0742 9.9804,-2.0508 15.6406,-5.1289 30.3711,-16.8164 18.8203,-14.7695 20.6289,-17.2305 21.9883,-29.7422 0.4531,-5.7461 3.8515,-10.2578 15.4101,-20.9219 19.7227,-18.664 22.8906,-24.6132 20.8516,-39.1757 -0.9024,-6.3594 -1.3516,-21.125 -1.1289,-33.0235 1.3593,-69.7383 1.5898,-72.8125 5.4375,-79.7851 5.2109,-9.0235 3.1797,-15.5899 -7.25,-21.5352 -22.211,-12.9219 -32.1797,-26.668 -32.1797,-44.7187 0,-4.3047 -2.0391,-11.6875 -4.3086,-16.4063 -2.4922,-4.9219 -5.4414,-15.793 -6.8008,-24.2031 -2.7187,-16.2031 -1.3594,-24.6133 5.2109,-33.2266 7.2579,-9.2343 3.3985,-21.9531 -9.7421,-33.2343 -8.1602,-7.168 -8.8399,-12.7071 -2.5,-23.7891 5.4414,-9.8399 11.1015,-12.7188 24.7109,-13.1211 10.4219,-0.207 10.4219,-0.207 11.1016,-7.7969 0.9101,-10.0508 -2.4922,-15.3828 -10.8829,-17.0234 -7.9296,-1.6367 -8.3789,-3.6992 -2.4882,-10.668 2.4882,-2.6601 5.2187,-9.2305 5.8984,-14.5586 2.9414,-21.7422 3.6211,-23.1836 13.8203,-32.4101 5.4414,-5.1328 9.9727,-10.461 9.9727,-12.1016 0,-1.4414 6.5703,-9.0195 14.7265,-16.6094 8.1602,-7.5898 14.7305,-15.3906 14.7305,-17.2304 0,-3.8985 20.1797,-25.2305 37.1719,-38.9688 6.1289,-5.1328 15.1914,-14.7695 20.1797,-21.543 17.8984,-24.1992 68.4492,-67.8867 93.3789,-80.8086 17.9101,-9.2304 26.289,-16.621 31.7304,-27.8984 3.8516,-7.793 10.8789,-15.1797 27.6524,-29.1211 23.1172,-19.2812 26.75,-24.4101 33.3164,-45.7422 2.2617,-7.3867 7.25,-15.5898 14.5117,-23.5898 14.2695,-16 16.7695,-20.3086 18.8086,-33.0274 0.9023,-5.9414 3.1719,-13.7304 5.2109,-17.4218 1.8086,-3.8985 4.9805,-11.0782 7.0196,-15.8008 4.0898,-11.0781 23.8007,-43.0664 34.6797,-56.3985 10.6601,-13.3398 13.832,-22.1601 14.0625,-39.3906 0,-8.39842 1.5781,-16.41014 3.3984,-19.48045 1.8086,-2.86719 3.1719,-8.82031 3.1719,-13.32813 0,-4.51953 -1.3633,-10.46093 -3.1719,-13.33203 -1.8203,-2.8789 -3.1797,-8 -3.3984,-11.48828 0,-6.35937 -5.9024,-13.1289 -11.1094,-13.1289 -1.5938,0 -6.5703,2.25 -11.1016,5.1289 -14.5117,9.01953 -43.3008,18.05078 -53.039,16.60938 -5.6719,-0.82032 -12.0118,0 -19.9532,2.8789 -6.3398,2.25 -16.3164,4.10157 -22.4375,4.10157 -9.5195,0 -12.0117,1.01953 -19.2617,7.3789 l -8.6172,7.58985 -18.3515,-1.23047 c -16.3204,-1.22657 -20.6289,-0.82032 -39.4414,4.72265 -24.4805,7.17969 -41.25,7.98828 -46.6875,2.45703 -2.043,-2.04687 -5.4415,-8.40625 -7.4805,-14.35937 -4.9805,-13.53906 -9.7422,-17.64063 -21.3008,-17.23047 -6.5781,0.20313 -9.5195,-0.61719 -11.1094,-3.27734 -3.1718,-5.33985 1.1289,-10.67188 8.6094,-10.67188 8.3906,0 12.4688,-4.50781 10.4297,-11.6875 -0.6797,-3.28125 -2.0391,-9.23047 -2.7188,-13.53125 -0.9101,-6.57031 -2.4921,-8.41015 -8.6093,-10.8789 -4.3125,-1.42969 -8.3907,-4.92188 -9.293,-7.38282 -0.9102,-2.66797 -4.5391,-8.61718 -7.9375,-13.32812 -3.6328,-4.71875 -6.5703,-9.44141 -6.5703,-10.46094 0,-3.48828 -7.9414,-8.19922 -18.1406,-10.66797 -5.6602,-1.23047 -11.7813,-2.67187 -14.0508,-3.28125 -2.0391,-0.62109 -5.211,-4.51172 -7.0196,-8.60937 -3.3984,-7.58985 -19.9492,-21.94922 -34.4492,-30.15235 -3.6289,-2.25781 -10.6601,-6.98047 -15.4218,-10.66797 -4.5274,-3.69921 -9.7383,-6.76953 -11.5586,-6.76953 -5.4414,0 -13.1407,-10.67187 -11.7813,-16.41015 1.8125,-8 -10.1992,-52.51172 -19.5,-71.78125 -7.4687,-15.80078 -7.9297,-16.41016 -15.6289,-16.41016 -5.6719,0 -6.8008,-1.03125 -7.9297,-6.16016 -1.1406,-4.71875 -2.7305,-6.14843 -6.582,-6.14843 -15.8594,0 -26.0586,-20.3125 -26.0586,-51.89063 0,-23.80078 -2.7188,-34.8789 -14.0508,-57.23047 -11.7891,-22.55859 -20.6289,-33.64062 -28.5586,-35.07031 -15.1914,-2.87891 -26.289,-20.30859 -20.8515,-33.23047 1.3515,-3.07812 2.2617,-8 2.2617,-11.27734 0,-4.72266 -1.1289,-6.36328 -5.6602,-7.39063 -6.1211,-1.42968 -10.1992,-6.35156 -10.1992,-12.71093 0,-4.92969 -17,-34.66016 -23.8008,-41.42969 -2.9492,-2.8711 -6.8008,-8 -8.6094,-11.49219 -2.039,-3.27734 -7.7109,-10.04687 -12.6992,-14.55859 -9.0625,-8 -9.2929,-8.82032 -9.2929,-22.16016 0,-12.71094 -0.4493,-14.14844 -7.0274,-19.07031 -27.8828,-22.14844 -57.3398,-72.19922 -47.6016,-81.62891 1.1407,-1.03125 -2.9414,-11.69922 -10.1992,-26.05078 -6.789,-13.32812 -12.2304,-25.01953 -12.2304,-25.83984 0,-1.03125 2.7187,-1.44141 6.3398,-1.03125 9.0703,1.23047 4.3086,-0.41016 -22.6602,-7.37891 -25.1601,-6.57031 -29.0117,-6.35937 -35.5898,0.82031 -1.5781,1.64063 -5.8906,3.69141 -9.7383,4.30078 -4.5312,1.03125 -8.3906,3.89844 -11.332,8.41797 -2.5,3.89063 -6.3516,7.99219 -8.6211,9.01172 -6.1172,2.8711 -17.8984,2.46875 -31.0469,-1.01953 -6.3515,-1.64062 -16.9922,-4.10156 -23.5703,-5.12891 -6.8008,-1.23046 -15.1797,-4.10156 -18.582,-6.35156 -3.6289,-2.46875 -15.418,-5.94922 -27.1992,-8 -11.5586,-2.05078 -22.6719,-4.51172 -24.711,-5.1289 -2.4883,-0.82032 -4.7578,0 -6.8008,2.86718 -4.5273,6.5625 -7.9296,5.33203 -15.6367,-5.94922 -3.6211,-5.53906 -8.6133,-10.46093 -10.6523,-11.07812 -2.0391,-0.41016 -15.6406,-1.42969 -29.918,-2.25 -33.543,-1.64063 -33.9922,-1.85156 -33.9922,-10.05078 0,-8 -5.6679,-13.53906 -16.0898,-15.37891 -4.9883,-0.82031 -8.6211,-3.29297 -11.1094,-7.39062 -5.6719,-9.42969 -15.4102,-9.42969 -26.9687,0 -6.1211,4.91797 -13.8321,8.61718 -24.0313,11.27734 -17.8984,4.72266 -20.3906,6.36328 -23.8008,15.38281 -2.039,5.53907 -1.5781,8.82032 2.2696,18.66797 2.4921,6.57031 4.5312,14.15235 4.5312,16.82031 0,8.82032 -7.0195,18.8711 -17,24 -13.1406,6.96875 -21.0703,6.5625 -34.2187,-2.05078 -22.8907,-14.98047 -24.0196,-15.38672 -38.7618,-15.38672 -13.3711,0 -23.8007,-2.66015 -52.1289,-13.33203 -8.6093,-3.48047 -17.2187,-13.53125 -21.0703,-24.60937 -5.8984,-16.82031 -9.75,-19.28125 -35.8203,-20.92188 -16.3086,-1.23047 -17.8984,-1.63672 -24.9297,-8.41015 -6.5703,-6.14844 -10.1992,-7.58985 -23.8008,-9.84766 -9.0586,-1.42969 -20.8476,-2.66016 -26.5078,-2.87109 -17.2305,-0.19922 -26.97654,-3.48828 -32.19139,-11.48828 -4.75781,-7.17188 -7.47656,-8.20313 -12.91797,-5.1211 -2.26562,1.42969 -5.4414,0.41016 -9.97265,-3.08203 -3.625,-2.66797 -7.25391,-4.91797 -8.38672,-4.91797 -0.90625,0 -2.94531,-2.67187 -4.53125,-5.94922 -3.85547,-8.60937 0.90625,-16.82031 11.33203,-19.89062 4.98437,-1.44141 8.60937,-4.30859 10.19922,-7.800782 1.35937,-2.871094 4.75781,-7.179688 7.48047,-9.441407 8.38281,-6.96875 6.79687,-17.019531 -4.08203,-26.660156 -7.9336,-6.96875 -9.0625,-9.226563 -9.0625,-17.019531 0,-7.179688 1.58203,-10.867188 8.15625,-18.457032 7.70703,-9.03125 8.61328,-13.742187 2.26562,-13.742187 -1.58594,0 -5.21094,2.25 -8.16016,5.121094 l -5.4375,5.128906 -11.33203,-10.050781 C 940.79297,4.71875 934.44922,0.109375 928.04687,0.140625 Z m 0,0"
     id="path1"
     style="fill:#016da3;fill-opacity:1" />
  <path
     fill-rule="nonzero"
     fill="rgb(0%, 0%, 0%)"
     fill-opacity="1"
     d="m 1981.0898,1580.3203 c -2.7187,2.461 -1.8085,6.3594 2.9493,11.2813 l 4.3007,4.9179 0.2305,-5.3281 c 0,-5.75 -4.9805,-13.1328 -7.4805,-10.8711 z m 0,0"
     id="path2"
     style="fill:#016da3;fill-opacity:1" />
  <path
     fill-rule="nonzero"
     fill="rgb(0%, 0%, 0%)"
     fill-opacity="1"
     d="m 2324.0117,1802.6563 c -2.2617,0 -7.7031,3.6914 -12.2422,8.2031 -4.5312,4.5117 -8.1601,9.0234 -8.1601,9.8437 0,1.0235 2.5,3.6914 5.6719,6.1524 3.1796,2.4609 5.6679,5.5429 5.6679,6.9765 0,3.8985 -22.2109,22.1485 -26.9687,22.1485 -6.3516,0 -11.5586,5.539 -11.5586,12.1054 0,3.2813 -2.2735,7.5899 -5.6719,10.461 -3.6289,3.0742 -5.6602,6.9726 -5.6602,10.8711 0,5.7422 -0.4609,5.9453 -7.0312,4.7148 -8.3867,-1.4336 -15.6367,1.6406 -15.6367,6.7695 0,4.9219 -5.2227,8.8204 -10.6524,8 -2.9492,-0.414 -4.3086,0.8204 -4.7578,4.5118 -1.1328,7.5898 -6.1211,11.4843 -21.9922,17.2265 -7.9297,2.8711 -17.6797,6.9766 -21.9804,9.4375 -4.0782,2.2578 -9.75,4.1016 -12.2383,4.1016 -2.7227,0 -7.4805,1.8476 -10.8789,4.3086 -3.4024,2.2578 -8.8438,4.9219 -12.2422,5.7422 -5.2109,1.2304 -6.1211,2.6679 -6.8008,9.6406 -0.4492,4.9219 -2.7187,10.0508 -6.1172,13.1289 -7.25,7.1758 -11.5625,15.3828 -15.8711,30.7656 -4.3008,15.1758 -3.1718,20.918 5.8985,30.1485 3.6211,3.6914 7.0195,9.4336 7.9297,12.5117 0.6796,3.0781 2.2695,8.2031 3.4023,11.4844 3.8477,10.8711 2.2695,24.2031 -3.6211,33.0234 -7.9414,11.8984 -9.75,15.3867 -12.4687,25.0273 -1.5899,5.7422 -6.3516,12.7149 -14.5118,20.5079 -6.5703,6.5625 -13.8203,14.7656 -15.8593,18.4609 -6.1211,10.8711 -4.7696,24.2031 4.3007,39.5859 5.4375,9.8438 8.3907,18.2539 9.9688,29.9453 4.7695,33.8438 6.3516,37.7383 20.3984,49.6368 7.0313,5.9453 15.8711,11.4843 19.7227,12.5078 15.418,3.8984 41.0273,-4.3047 67.539,-21.3282 16.3204,-10.4609 17.6797,-12.7148 22.8985,-39.789 2.043,-10.668 5.6601,-20.9219 9.9726,-27.4883 4.3086,-6.7695 8.1602,-17.4297 10.4297,-28.918 2.4883,-11.8945 5.8907,-21.1289 9.7383,-26.2578 4.3125,-5.9453 5.8906,-11.2773 6.3516,-19.4844 0.4492,-9.4335 1.5781,-12.3046 7.25,-17.8437 6.3398,-5.7422 10.6484,-14.5586 19.9492,-40.1992 1.8086,-4.9219 5.8906,-11.4844 9.0586,-14.5625 7.0312,-6.7696 9.75,-16.6133 9.9805,-35.8946 0,-18.0507 4.5312,-32.4062 14.7304,-45.7382 6.5703,-8.6133 7.9297,-12.1016 7.9297,-21.3321 0,-13.1289 1.3594,-14.7695 8.6094,-10.4609 7.9414,4.7148 12.6914,2.2578 10.8828,-5.7422 -0.6797,-3.4883 -0.2305,-11.4844 1.1289,-17.8437 2.5,-10.461 2.2695,-12.3086 -2.2617,-20.3086 -4.3086,-7.5899 -4.7578,-11.6914 -4.5391,-31.7891 0.461,-21.5391 0.2305,-23.793 -5.2109,-32.2031 -3.168,-5.1289 -6.5664,-12.3086 -7.4766,-15.7969 -1.582,-7.1797 -10.4219,-14.9687 -17,-14.9687 z m 0,0"
     id="path3"
     style="fill:#016da3;fill-opacity:1" />
</svg>
